<?xml version="1.0" standalone="no"?><!DOCTYPE svg PUBLIC "-//W3C//DTD SVG 1.1//EN" "http://www.w3.org/Graphics/SVG/1.1/DTD/svg11.dtd"><svg t="1565597495837" class="icon" viewBox="0 0 1024 1024" version="1.1" xmlns="http://www.w3.org/2000/svg" p-id="13014" xmlns:xlink="http://www.w3.org/1999/xlink" width="200" height="200"><defs><style type="text/css"></style></defs><path d="M890.092308 41.353846H545.476923c-21.661538-1.969231-41.353846 9.846154-57.107692 25.6L66.953846 490.338462c-35.446154 35.446154-35.446154 96.492308 0 133.907692l334.769231 334.769231c35.446154 35.446154 96.492308 35.446154 133.907692 0l427.323077-429.292308c15.753846-15.753846 25.6-41.353846 23.630769-63.015385V135.876923c-1.969231-51.2-45.292308-94.523077-96.492307-94.523077zM549.415385 734.523077l-21.661539 21.661538c-11.815385 11.815385-31.507692 11.815385-43.323077 0L269.784615 543.507692c-11.815385-11.815385-11.815385-31.507692 0-43.323077l21.661539-21.661538c11.815385-11.815385 31.507692-11.815385 43.323077 0l214.646154 214.646154c13.784615 9.846154 13.784615 29.538462 0 41.353846z m126.030769-126.030769L653.784615 630.153846c-11.815385 11.815385-31.507692 11.815385-43.323077 0L395.815385 417.476923c-11.815385-11.815385-11.815385-31.507692 0-43.323077l21.661538-21.661538c11.815385-11.815385 31.507692-11.815385 43.323077 0l214.646154 214.646154c13.784615 9.846154 13.784615 29.538462 0 41.353846z m88.615384-267.815385c-43.323077 0-78.769231-35.446154-78.76923-78.769231s35.446154-78.769231 78.76923-78.76923 78.769231 35.446154 78.769231 78.76923-35.446154 78.769231-78.769231 78.769231z" p-id="13015"></path></svg>