<?xml version="1.0" standalone="no"?><!DOCTYPE svg PUBLIC "-//W3C//DTD SVG 1.1//EN" "http://www.w3.org/Graphics/SVG/1.1/DTD/svg11.dtd"><svg t="1565598179448" class="icon" viewBox="0 0 1024 1024" version="1.1" xmlns="http://www.w3.org/2000/svg" p-id="30455" xmlns:xlink="http://www.w3.org/1999/xlink" width="200" height="200"><defs><style type="text/css"></style></defs><path d="M0.000284 0" p-id="30456"></path><path d="M985.599737 307.199829c11.810127 0 21.333321-17.91999 21.333321-29.730116v-255.999858A21.458477 21.458477 0 0 0 985.599737 0h-938.666145C35.123465 0 17.066942 9.727995 17.066942 21.469855v597.333001C17.066942 630.612983 35.123465 648.532973 46.933592 648.532973H699.733229v68.266629H46.933592C35.123465 716.799602 17.066942 735.060925 17.066942 746.802785v255.999858C17.066942 1014.61277 35.123465 1023.999431 46.933592 1023.999431h938.666145a21.18541 21.18541 0 0 0 21.333321-21.196788v-597.333002c0-11.74186-9.523195-30.003183-21.333321-30.003183H290.133457v-68.266629h695.46628z" p-id="30457"></path></svg>