<?xml version="1.0" standalone="no"?><!DOCTYPE svg PUBLIC "-//W3C//DTD SVG 1.1//EN" "http://www.w3.org/Graphics/SVG/1.1/DTD/svg11.dtd"><svg t="1565597746695" class="icon" viewBox="0 0 1031 1024" version="1.1" xmlns="http://www.w3.org/2000/svg" p-id="16960" xmlns:xlink="http://www.w3.org/1999/xlink" width="201.3671875" height="200"><defs><style type="text/css"></style></defs><path d="M71.246403 0.007478l890.201141 7.121609c35.099359 0.508686 63.585796 25.943005 63.07711 56.972873l-1.526059 169.39256c0 31.029868-28.995123 56.464187-64.094483 55.9555l-890.20114-7.121609C33.603612 282.328411 5.625862 256.894093 6.134549 225.864224l1.526059-169.39256C7.660608 24.93311 36.147044-0.501209 71.246403 0.007478zM64.633481 395.256784l180.074973 1.526059c33.064614 0.508686 60.024991 28.486437 59.516305 62.568423l-4.069491 497.495266c-0.508686 34.081987-27.469064 62.059737-60.533677 61.551051l-180.074974-1.017373C26.482003 1016.871524-0.478374 988.893773 0.030312 954.811787l4.069491-497.495266C4.099803 422.725848 31.568867 395.256784 64.633481 395.256784z m428.822606 3.560805l469.517516 3.560804c32.555927 0.508686 58.498932 28.486437 58.498932 62.568423l-4.06949 497.495266c-0.508686 34.081987-26.960377 62.059737-59.007619 61.551051l-470.026202-3.052118c-32.555927-0.508686-58.498932-28.486437-58.498932-62.568423l4.069491-497.495267c0.508686-34.590673 26.960377-62.059737 59.516304-62.059736z" p-id="16961"></path></svg>