<?xml version="1.0" encoding="utf-8"?>
<!-- Generator: Adobe Illustrator 21.0.0, SVG Export Plug-In . SVG Version: 6.00 Build 0)  -->
<svg version="1.1" id="图层_1" xmlns="http://www.w3.org/2000/svg" xmlns:xlink="http://www.w3.org/1999/xlink" x="0px" y="0px"
	 viewBox="0 0 200 200" style="enable-background:new 0 0 200 200;" xml:space="preserve">
<style type="text/css">
	.st0{display:none;fill:#8E93A3;}
	.st1{fill:#8E93A3;}
</style>
<path class="st0" d="M111.8,187.6H89.1c-33.4,0-60.5-27.1-60.5-60.5V55.2c0-12.5,10.2-22.7,22.7-22.7c0,0,0,0,0,0h0.5
	c-0.3,1.2-0.5,2.5-0.5,3.8v3.8c0,8.4,6.8,15.1,15.1,15.1l0,0h68.1c8.4,0,15.1-6.8,15.1-15.1v-3.8c0-1.3-0.2-2.5-0.5-3.8h0.5
	c12.5,0,22.7,10.2,22.7,22.7c0,0,0,0,0,0v71.9C172.3,160.5,145.2,187.6,111.8,187.6L111.8,187.6z M68.3,134.6h26.5
	c3.1,0,5.7-2.5,5.7-5.7c0-3.1-2.5-5.7-5.7-5.7H68.3c-3.1,0-5.7,2.5-5.7,5.7C62.6,132.1,65.1,134.6,68.3,134.6z M132.6,89.2H64.5
	c-3.1,0-5.7,2.5-5.7,5.7c0,3.1,2.5,5.7,5.7,5.7h68.1c3.1,0,5.7-2.5,5.7-5.7C138.3,91.8,135.7,89.2,132.6,89.2z M125,47.6H75.8
	c-9.4,0-17-7.6-17-17s7.6-17,17-17H125c9.4,0,17,7.6,17,17S134.4,47.6,125,47.6z"/>
<path class="st0" d="M169.4,89.1h-138c-6.9,0-11.5-4.6-11.5-11.5v-46c0-6.9,4.6-11.5,11.5-11.5h138c6.9,0,11.5,4.6,11.5,11.5v46
	C180.9,84.5,176.3,89.1,169.4,89.1L169.4,89.1z M77.4,181.1h-46c-6.9,0-11.5-4.6-11.5-11.5v-46c0-6.9,4.6-11.5,11.5-11.5h46
	c6.9,0,11.5,4.6,11.5,11.5v46C88.9,176.5,84.3,181.1,77.4,181.1z M169.4,135.1h-46c-6.9,0-11.5-4.6-11.5-11.5
	c0-6.9,4.6-11.5,11.5-11.5h46c6.9,0,11.5,4.6,11.5,11.5S176.3,135.1,169.4,135.1L169.4,135.1z M169.4,181.1h-46
	c-6.9,0-11.5-4.6-11.5-11.5s4.6-11.5,11.5-11.5h46c6.9,0,11.5,4.6,11.5,11.5S176.3,181.1,169.4,181.1L169.4,181.1z"/>
<path class="st1" d="M110,19.9c-5.1-4.7-13-4.7-18.1,0L18.5,89.6c-2.8,2.5-2.9,6.8-0.4,9.6c2.5,2.7,6.7,2.9,9.5,0.5l1.2-1.1v72.7
	c0,7.5,6,13.5,13.5,13.5c0,0,0,0,0,0h39.4V144c0-5.3,4.3-9.5,9.5-9.5c0,0,0,0,0,0h18.5c5.3,0,9.5,4.3,9.5,9.5c0,0,0,0,0,0v40.7h40.3
	c7.5,0,13.5-6.1,13.5-13.5c0,0,0,0,0,0V99.4c3,2.7,7.3,2.5,9.8-0.3c2.5-2.8,2.3-7-0.5-9.6c0,0,0,0,0,0L110,19.9L110,19.9z"/>
<path class="st0" d="M174.6,68.5c1.8,0,3.3-2.8,3.3-4.7V23.8c0-1.8-1.5-3.4-3.3-3.4h-147c-1.8,0-4.7,1.5-4.7,3.4v93.5
	c0,1.8,2.8,4.7,4.7,4.7h102.2v10.7H27.6c-1.8,0-4.7,2.9-4.7,4.7v40.1c0,1.8,2.8,3.3,4.7,3.3h147c1.8,0,3.3-1.5,3.3-3.3c0,0,0,0,0,0
	V83.9c0-1.8-1.5-4.7-3.3-4.7H65.7V68.5L174.6,68.5L174.6,68.5z"/>
</svg>
